<svg width="232" height="46" viewBox="0 0 232 46" fill="none" xmlns="http://www.w3.org/2000/svg">
<rect width="232" height="46" fill="white"/>
<path fill-rule="evenodd" clip-rule="evenodd" d="M23.3993 18.443C23.5295 18.0162 23.9264 17.7057 24.3958 17.7057H36.0625C36.5319 17.7057 36.9288 18.0162 37.059 18.443L30.2292 22.9962L23.3993 18.443ZM22.1042 18.7359C22.1041 18.7426 22.1041 18.7493 22.1042 18.7559V27.0807C22.1042 28.3464 23.1302 29.3724 24.3958 29.3724H36.0625C37.3282 29.3724 38.3542 28.3464 38.3542 27.0807V18.7559M37.1042 19.9152V27.0807C37.1042 27.656 36.6378 28.1224 36.0625 28.1224H24.3958C23.8205 28.1224 23.3542 27.656 23.3542 27.0807V19.9152L29.8825 24.2674C30.0924 24.4074 30.3659 24.4074 30.5759 24.2674L37.1042 19.9152ZM38.3541 18.736C38.348 17.4756 37.3244 16.4557 36.0625 16.4557H24.3958C23.134 16.4557 22.1104 17.4756 22.1042 18.7359" fill="#5F6980"/>
<path d="M49.0043 17.8182H51.2614L54.2841 25.196H54.4034L57.4261 17.8182H59.6832V28H57.9134V21.005H57.8189L55.005 27.9702H53.6825L50.8686 20.9901H50.7741V28H49.0043V17.8182ZM64.9929 28.1491C64.2273 28.1491 63.5661 27.9901 63.0092 27.6719C62.4557 27.3504 62.0298 26.8963 61.7315 26.3097C61.4332 25.7197 61.2841 25.0253 61.2841 24.2266C61.2841 23.4411 61.4332 22.7517 61.7315 22.1584C62.0331 21.5618 62.4541 21.0978 62.9943 20.7663C63.5346 20.4316 64.1693 20.2642 64.8984 20.2642C65.3691 20.2642 65.8132 20.3404 66.2308 20.4929C66.6518 20.642 67.023 20.8741 67.3445 21.1889C67.6693 21.5038 67.9245 21.9048 68.1101 22.392C68.2957 22.8759 68.3885 23.4527 68.3885 24.1222V24.674H62.1293V23.4609H66.6634C66.66 23.1162 66.5855 22.8097 66.4396 22.5412C66.2938 22.2694 66.09 22.0556 65.8281 21.8999C65.5696 21.7441 65.268 21.6662 64.9233 21.6662C64.5554 21.6662 64.2322 21.7557 63.9538 21.9347C63.6754 22.1103 63.4583 22.3423 63.3026 22.6307C63.1501 22.9157 63.0722 23.2289 63.0689 23.5703V24.6293C63.0689 25.0734 63.1501 25.4545 63.3125 25.7727C63.4749 26.0876 63.7019 26.3295 63.9936 26.4986C64.2853 26.6643 64.6267 26.7472 65.0178 26.7472C65.2796 26.7472 65.5166 26.7107 65.7287 26.6378C65.9408 26.5616 66.1248 26.4505 66.2805 26.3047C66.4363 26.1589 66.554 25.9782 66.6335 25.7628L68.3139 25.9517C68.2079 26.3958 68.0057 26.7836 67.7074 27.1151C67.4124 27.4432 67.0346 27.6984 66.5739 27.8807C66.1132 28.0597 65.5862 28.1491 64.9929 28.1491ZM75.9466 22.3821L74.3059 22.5611C74.2595 22.3954 74.1783 22.2396 74.0623 22.0938C73.9496 21.9479 73.7972 21.8303 73.6049 21.7408C73.4127 21.6513 73.1774 21.6065 72.899 21.6065C72.5244 21.6065 72.2096 21.6877 71.9544 21.8501C71.7025 22.0125 71.5782 22.223 71.5815 22.4815C71.5782 22.7036 71.6594 22.8842 71.8251 23.0234C71.9941 23.1626 72.2725 23.277 72.6603 23.3665L73.9629 23.6449C74.6854 23.8007 75.2224 24.0476 75.5737 24.3857C75.9283 24.7237 76.1073 25.1662 76.1106 25.7131C76.1073 26.1937 75.9664 26.6179 75.688 26.9858C75.4129 27.3504 75.0301 27.6354 74.5396 27.8409C74.0491 28.0464 73.4856 28.1491 72.8493 28.1491C71.9146 28.1491 71.1622 27.9536 70.5922 27.5625C70.0221 27.1681 69.6824 26.6196 69.573 25.9169L71.3279 25.7479C71.4075 26.0926 71.5765 26.3527 71.835 26.5284C72.0936 26.7041 72.43 26.7919 72.8443 26.7919C73.2718 26.7919 73.6149 26.7041 73.8734 26.5284C74.1352 26.3527 74.2662 26.1357 74.2662 25.8771C74.2662 25.6584 74.1816 25.4777 74.0126 25.3352C73.8469 25.1927 73.5884 25.0833 73.237 25.0071L71.9345 24.7337C71.202 24.5812 70.6601 24.3243 70.3088 23.9631C69.9574 23.5985 69.7834 23.1378 69.7868 22.581C69.7834 22.1103 69.911 21.7027 70.1696 21.358C70.4314 21.0099 70.7943 20.7415 71.2583 20.5526C71.7257 20.3603 72.2643 20.2642 72.8741 20.2642C73.769 20.2642 74.4733 20.4548 74.987 20.8359C75.5041 21.2171 75.8239 21.7325 75.9466 22.3821ZM83.6301 22.3821L81.9895 22.5611C81.9431 22.3954 81.8619 22.2396 81.7459 22.0938C81.6332 21.9479 81.4808 21.8303 81.2885 21.7408C81.0963 21.6513 80.861 21.6065 80.5826 21.6065C80.208 21.6065 79.8932 21.6877 79.638 21.8501C79.3861 22.0125 79.2618 22.223 79.2651 22.4815C79.2618 22.7036 79.343 22.8842 79.5087 23.0234C79.6777 23.1626 79.9561 23.277 80.3439 23.3665L81.6465 23.6449C82.369 23.8007 82.906 24.0476 83.2573 24.3857C83.6119 24.7237 83.7909 25.1662 83.7942 25.7131C83.7909 26.1937 83.65 26.6179 83.3716 26.9858C83.0965 27.3504 82.7137 27.6354 82.2232 27.8409C81.7327 28.0464 81.1692 28.1491 80.5328 28.1491C79.5982 28.1491 78.8458 27.9536 78.2757 27.5625C77.7057 27.1681 77.3659 26.6196 77.2566 25.9169L79.0115 25.7479C79.0911 26.0926 79.2601 26.3527 79.5186 26.5284C79.7772 26.7041 80.1136 26.7919 80.5279 26.7919C80.9554 26.7919 81.2985 26.7041 81.557 26.5284C81.8188 26.3527 81.9498 26.1357 81.9498 25.8771C81.9498 25.6584 81.8652 25.4777 81.6962 25.3352C81.5305 25.1927 81.272 25.0833 80.9206 25.0071L79.6181 24.7337C78.8856 24.5812 78.3437 24.3243 77.9924 23.9631C77.641 23.5985 77.467 23.1378 77.4703 22.581C77.467 22.1103 77.5946 21.7027 77.8532 21.358C78.115 21.0099 78.4779 20.7415 78.9419 20.5526C79.4093 20.3603 79.9479 20.2642 80.5577 20.2642C81.4526 20.2642 82.1569 20.4548 82.6706 20.8359C83.1877 21.2171 83.5075 21.7325 83.6301 22.3821ZM87.4757 28.1541C86.9918 28.1541 86.5559 28.0679 86.1681 27.8956C85.7837 27.7199 85.4788 27.4614 85.2534 27.12C85.0313 26.7786 84.9203 26.3577 84.9203 25.8572C84.9203 25.4264 84.9998 25.0701 85.1589 24.7884C85.318 24.5066 85.5351 24.2812 85.8102 24.1122C86.0853 23.9432 86.3952 23.8156 86.7399 23.7294C87.0879 23.6399 87.4475 23.5753 87.8187 23.5355C88.2662 23.4891 88.6291 23.4477 88.9075 23.4112C89.1859 23.3714 89.3881 23.3118 89.514 23.2322C89.6433 23.1494 89.7079 23.0218 89.7079 22.8494V22.8196C89.7079 22.4451 89.5969 22.1551 89.3748 21.9496C89.1528 21.7441 88.8329 21.6413 88.4153 21.6413C87.9745 21.6413 87.6248 21.7375 87.3663 21.9297C87.1111 22.1219 86.9387 22.349 86.8493 22.6108L85.1689 22.3722C85.3014 21.9081 85.5202 21.5204 85.8251 21.2088C86.13 20.8939 86.5029 20.6586 86.9437 20.5028C87.3845 20.3438 87.8717 20.2642 88.4054 20.2642C88.7733 20.2642 89.1395 20.3073 89.5041 20.3935C89.8687 20.4796 90.2018 20.6222 90.5034 20.821C90.805 21.0166 91.0469 21.2834 91.2292 21.6214C91.4148 21.9595 91.5076 22.3821 91.5076 22.8892V28H89.7775V26.951H89.7179C89.6085 27.1631 89.4544 27.362 89.2555 27.5476C89.06 27.7299 88.813 27.8774 88.5147 27.9901C88.2198 28.0994 87.8734 28.1541 87.4757 28.1541ZM87.943 26.8317C88.3043 26.8317 88.6175 26.7604 88.8826 26.6179C89.1478 26.4721 89.3516 26.2798 89.4941 26.0412C89.64 25.8026 89.7129 25.5424 89.7129 25.2607V24.3608C89.6565 24.4072 89.5604 24.4503 89.4245 24.4901C89.292 24.5298 89.1428 24.5646 88.9771 24.5945C88.8114 24.6243 88.6473 24.6508 88.4849 24.674C88.3225 24.6972 88.1816 24.7171 88.0623 24.7337C87.7939 24.7701 87.5536 24.8298 87.3414 24.9126C87.1293 24.9955 86.9619 25.1115 86.8393 25.2607C86.7167 25.4065 86.6554 25.5954 86.6554 25.8274C86.6554 26.1589 86.7763 26.4091 87.0183 26.5781C87.2602 26.7472 87.5685 26.8317 87.943 26.8317ZM96.6383 31.0227C95.992 31.0227 95.4368 30.9349 94.9728 30.7592C94.5088 30.5869 94.1359 30.3549 93.8542 30.0632C93.5725 29.7715 93.377 29.4484 93.2676 29.0938L94.8883 28.701C94.9612 28.8501 95.0673 28.9976 95.2065 29.1435C95.3457 29.2926 95.533 29.4152 95.7683 29.5114C96.0069 29.6108 96.3069 29.6605 96.6681 29.6605C97.1786 29.6605 97.6011 29.5362 97.9359 29.2876C98.2707 29.0424 98.438 28.638 98.438 28.0746V26.6278H98.3485C98.2557 26.8134 98.1199 27.004 97.9409 27.1996C97.7652 27.3951 97.5315 27.5592 97.2399 27.6918C96.9515 27.8243 96.5886 27.8906 96.1511 27.8906C95.5645 27.8906 95.0325 27.7531 94.5552 27.478C94.0813 27.1996 93.7034 26.7853 93.4217 26.2351C93.1433 25.6816 93.0041 24.9889 93.0041 24.157C93.0041 23.3184 93.1433 22.6108 93.4217 22.0341C93.7034 21.4541 94.0829 21.0149 94.5602 20.7166C95.0375 20.415 95.5694 20.2642 96.1561 20.2642C96.6035 20.2642 96.9714 20.3404 97.2598 20.4929C97.5514 20.642 97.7834 20.8227 97.9558 21.0348C98.1281 21.2436 98.2591 21.4408 98.3485 21.6264H98.448V20.3636H100.223V28.1243C100.223 28.7772 100.067 29.3175 99.7555 29.745C99.444 30.1726 99.0181 30.4924 98.4778 30.7045C97.9376 30.9167 97.3244 31.0227 96.6383 31.0227ZM96.6532 26.4787C97.0344 26.4787 97.3592 26.3859 97.6277 26.2003C97.8961 26.0147 98.1 25.7479 98.2392 25.3999C98.3784 25.0518 98.448 24.6342 98.448 24.147C98.448 23.6664 98.3784 23.2455 98.2392 22.8842C98.1033 22.523 97.9011 22.2429 97.6326 22.044C97.3675 21.8419 97.041 21.7408 96.6532 21.7408C96.2522 21.7408 95.9174 21.8452 95.649 22.054C95.3805 22.2628 95.1783 22.5495 95.0424 22.9141C94.9065 23.2753 94.8386 23.6863 94.8386 24.147C94.8386 24.6143 94.9065 25.0237 95.0424 25.375C95.1816 25.723 95.3855 25.9948 95.6539 26.1903C95.9257 26.3826 96.2588 26.4787 96.6532 26.4787ZM105.448 28.1491C104.682 28.1491 104.021 27.9901 103.464 27.6719C102.911 27.3504 102.485 26.8963 102.187 26.3097C101.888 25.7197 101.739 25.0253 101.739 24.2266C101.739 23.4411 101.888 22.7517 102.187 22.1584C102.488 21.5618 102.909 21.0978 103.449 20.7663C103.99 20.4316 104.624 20.2642 105.354 20.2642C105.824 20.2642 106.268 20.3404 106.686 20.4929C107.107 20.642 107.478 20.8741 107.8 21.1889C108.124 21.5038 108.38 21.9048 108.565 22.392C108.751 22.8759 108.844 23.4527 108.844 24.1222V24.674H102.584V23.4609H107.118C107.115 23.1162 107.041 22.8097 106.895 22.5412C106.749 22.2694 106.545 22.0556 106.283 21.8999C106.025 21.7441 105.723 21.6662 105.378 21.6662C105.01 21.6662 104.687 21.7557 104.409 21.9347C104.131 22.1103 103.913 22.3423 103.758 22.6307C103.605 22.9157 103.527 23.2289 103.524 23.5703V24.6293C103.524 25.0734 103.605 25.4545 103.768 25.7727C103.93 26.0876 104.157 26.3295 104.449 26.4986C104.74 26.6643 105.082 26.7472 105.473 26.7472C105.735 26.7472 105.972 26.7107 106.184 26.6378C106.396 26.5616 106.58 26.4505 106.736 26.3047C106.891 26.1589 107.009 25.9782 107.089 25.7628L108.769 25.9517C108.663 26.3958 108.461 26.7836 108.162 27.1151C107.867 27.4432 107.49 27.6984 107.029 27.8807C106.568 28.0597 106.041 28.1491 105.448 28.1491ZM116.402 22.3821L114.761 22.5611C114.715 22.3954 114.633 22.2396 114.517 22.0938C114.405 21.9479 114.252 21.8303 114.06 21.7408C113.868 21.6513 113.632 21.6065 113.354 21.6065C112.98 21.6065 112.665 21.6877 112.409 21.8501C112.158 22.0125 112.033 22.223 112.037 22.4815C112.033 22.7036 112.114 22.8842 112.28 23.0234C112.449 23.1626 112.728 23.277 113.115 23.3665L114.418 23.6449C115.141 23.8007 115.677 24.0476 116.029 24.3857C116.383 24.7237 116.562 25.1662 116.566 25.7131C116.562 26.1937 116.422 26.6179 116.143 26.9858C115.868 27.3504 115.485 27.6354 114.995 27.8409C114.504 28.0464 113.941 28.1491 113.304 28.1491C112.37 28.1491 111.617 27.9536 111.047 27.5625C110.477 27.1681 110.137 26.6196 110.028 25.9169L111.783 25.7479C111.863 26.0926 112.032 26.3527 112.29 26.5284C112.549 26.7041 112.885 26.7919 113.299 26.7919C113.727 26.7919 114.07 26.7041 114.328 26.5284C114.59 26.3527 114.721 26.1357 114.721 25.8771C114.721 25.6584 114.637 25.4777 114.468 25.3352C114.302 25.1927 114.043 25.0833 113.692 25.0071L112.39 24.7337C111.657 24.5812 111.115 24.3243 110.764 23.9631C110.413 23.5985 110.239 23.1378 110.242 22.581C110.239 22.1103 110.366 21.7027 110.625 21.358C110.886 21.0099 111.249 20.7415 111.713 20.5526C112.181 20.3603 112.719 20.2642 113.329 20.2642C114.224 20.2642 114.928 20.4548 115.442 20.8359C115.959 21.2171 116.279 21.7325 116.402 22.3821Z" fill="#5F6980"/>
<path d="M199.228 20.5L204.228 25.5L209.228 20.5" stroke="#5F6980" stroke-width="1.25" stroke-linecap="round" stroke-linejoin="round"/>
</svg>
